<svg id="Capa_1" data-name="Capa 1" xmlns="http://www.w3.org/2000/svg" viewBox="0 0 252.05 251.2"><defs><style>.cls-1{fill:#9bc220;}.cls-2{fill:#fff;}.cls-3{fill:#fffffe;}</style></defs><path class="cls-1" d="M120.92,251.14c-34.15.45-66-14.64-91.08-43.8-22.5-26.14-32-57-29.41-91.15C5.69,47.86,62.81-4.19,134.89.27,205.2,4.62,257.26,65.28,251.63,136,246.16,204.65,188.42,253.11,120.92,251.14Z"/><path class="cls-2" d="M120.81,139.49c-.4,22.41-8.62,41.28-25.4,56.37-3.31,3-6,3.66-10,.9-23.18-16.17-34.87-38.22-33.83-66.49C52.33,111.18,60,95,73.68,81.53c1.91-1.89,2.85-2.65,4.73,0a57.49,57.49,0,0,0,31.65,22.85c4.74,1.39,5.2,7.16,6.6,11.14C119.35,123.2,121.11,131.21,120.81,139.49Z"/><path class="cls-2" d="M131.3,139.83c.27-11.29,2.42-22,7.32-32,.83-1.68,1.57-3.19,3.66-3.71,13.2-3.25,23.23-11.09,30.88-22,2.12-3,3.2-2.57,5.47-.32,25.69,25.45,29.28,64,9,94.54A69.7,69.7,0,0,1,165,197.59c-3,1.79-4.77,1.25-7-.67C140.37,181.88,131.84,162.63,131.3,139.83Z"/><path class="cls-3" d="M124.4,92.88c-14.5-.55-26.54-7.54-35.61-20-1.47-2-1-3.28,1.23-4.21,4.45-1.84,8.81-3.91,13.32-5.59,3.37-1.25,3.31-2.71,1-5-4.06-3.94-8-8-12.11-11.88-2.51-2.34-1.24-3.81.53-5.74,2-2.15,3.06-1.37,4.75.39,5,5.3,10.46,10.27,15.44,15.63,2.51,2.7,5.29,3.23,8.78,3.62,9.67,1.07,17.43-1.36,23.36-9.51,2.61-3.59,6.34-6.35,9.39-9.64,1.57-1.7,2.7-2.79,4.74-.53,1.67,1.85,2.61,3,.11,5.17-4.37,3.82-8.27,8.18-12.42,12.27-2.58,2.54-2.26,4,1.3,5.15,4.09,1.35,8,3.19,12,4.93,3.49,1.54,3.71,3.77,1.33,6.66C152.13,86.05,140.49,92.86,124.4,92.88Z"/></svg>