<svg id="Capa_1" data-name="Capa 1" xmlns="http://www.w3.org/2000/svg" viewBox="0 0 250.96 251.36"><defs><style>.cls-1{fill:#4e4797;}.cls-2{fill:#fff;}.cls-3{fill:#4b4697;}</style></defs><path class="cls-1" d="M125.78,0C196.05,2,251.12,56,251,126.1S195.45,250.71,125.24,251.36c-34.78.32-65-13.22-89.57-38.5C12.07,188.54-.13,159.08,0,125.59.14,90.77,13.34,60.64,38.48,35.93,62.38,12.44,95,.77,125.78,0Z"/><path class="cls-2" d="M130.75,25.42c.14,8.6,2.59,17-.94,25.25-1,2.29.15,3.16,2.57,3.45,30.44,3.74,52.23,19.31,63.75,48C210.51,137.82,193,178.72,159,195c-15.37,7.36-31.1-.94-39.89-11.53a39.26,39.26,0,0,1-5.93-9.76c-2.11-4.94-2.25-4.78,3.37-4.86a68.69,68.69,0,0,0,20.56-3.14c11.36-3.73,18.81-11.58,21.35-23,3.12-14,2.33-27.55-10.17-37.7a55.11,55.11,0,0,1-6.47-6.91,27.53,27.53,0,0,1-4.95-7.44c-.47-1.18-1-2.72-2.6-2.7-1.32,0-1.71,1.5-2.17,2.48-7.22,15.32-20.33,21.61-36.19,23.49-13,1.54-26.13,1.86-38.77,5.69a13.48,13.48,0,0,0-1.46.32c-1.86.78-3.87,3.41-5.54,1.86s.8-3.9,1.16-6C54.91,94.92,67,79.57,84,67.94c12.23-8.35,24.84-16.08,35.06-27A115.21,115.21,0,0,0,130.75,25.42Z"/><path class="cls-2" d="M54.78,145.67c-.32-1.89,1.07-2.49,2.33-3.37,7.79-5.4,16.64-8.28,25.72-10.11,7-1.4,14-2.89,21.24-2.43,1,.06,2.12-.51,2.8.39s-.21,1.79-.75,2.61c-14.59,22.36-8.11,47.09,6.13,65.62.58.76,2.49,1.19,1.18,2.64-.84.94-1.74-.17-2.65-.42-9-2.44-17.72-5.51-25.42-10.95-14.89-10.52-25.36-24.22-30-42.07C55.2,146.94,55,146.31,54.78,145.67Z"/><path class="cls-3" d="M97.4,85.79C96.5,90,95,94.3,90.93,97.17c-4.25,3-9.09,4.77-14,6.35-1.73.56-4.4.43-3.11-2.48C77.51,92.75,82.2,85.16,91,81.22,95.33,79.24,97.37,80.58,97.4,85.79Z"/></svg>