<svg id="Capa_1" data-name="Capa 1" xmlns="http://www.w3.org/2000/svg" viewBox="0 0 249.98 250.1"><defs><style>.cls-1{fill:#ffd525;}.cls-2{fill:#fff;}</style></defs><path class="cls-1" d="M124.52,250.1C55.66,249.58-.15,194.08,0,124.83.15,55.81,56.2-.17,125,0a125.05,125.05,0,1,1-.45,250.1Z"/><path class="cls-2" d="M140.18,181c-5-5.13-10-10.24-15-15.39q-26.33-27.31-52.6-54.65c-1.08-1.13-3.16-2.12-2.28-4s3-.94,4.54-1c10.82-.1,21.64-.06,32.46-.13,5.07,0,5.46-.89,3.38-5.56C105,87.37,99.38,74.41,93.65,61.49c-1.27-2.87-.28-4.14,2.63-4.14,18.48,0,37,0,55.44-.05,2.57,0,3.87,1.28,4.59,3.69q6.91,23.13,14,46.22c2.95,9.69,5.82,19.41,9,29,1.32,3.95.3,5-3.66,4.89-8.81-.21-17.64,0-26.46-.12-3.69-.06-4.66,1-3.49,4.72,4.63,14.75,9,29.57,13.44,44.37.47,1.58.73,3.23,1.08,4.85.13,2,2.8,4.54.67,5.81-1.95,1.16-3.54-1.85-4.82-3.36A153,153,0,0,0,140.18,181Z"/></svg>