<svg id="Capa_1" data-name="Capa 1" xmlns="http://www.w3.org/2000/svg" viewBox="0 0 250.12 249.97"><defs><style>.cls-1{fill:#653b8f;}.cls-2{fill:#fff;}.cls-3{fill:#653d90;}</style></defs><path class="cls-1" d="M120.81,249.82C46.68,247.22-1.79,184.52.05,122.54,2.32,46.33,65.82-1.69,127.31.05c77,2.16,124.67,66.59,122.76,127.52C247.63,205.2,182,253,120.81,249.82Z"/><path class="cls-2" d="M189,189.85c-7.87,5-15.49,7.24-23.17,8.82-12.38,2.56-24.95,4.35-37.64,3.21-25.5-2.29-48.33-10.7-65.54-30.63-15-17.41-21.22-37.62-17.78-60.56,4.23-28.25,19.6-48.36,45.47-59.87,41.76-18.58,90.37,3.8,103.94,47.54,8.08,26.06,3.21,50.05-13.66,71.23C174.31,177.55,178.26,188.76,189,189.85Z"/><path class="cls-1" d="M151.72,128.24a17.4,17.4,0,0,1-17.37-13.56c-.74-3,0-4,3.06-3.54,11,1.53,17-2.39,20.12-13.33,1.08-3.82,2.56-4.13,5.45-1.7a18.77,18.77,0,0,1,6,20.25A18,18,0,0,1,151.72,128.24Z"/><path class="cls-3" d="M90.1,128.21c-7.43,0-14.52-4.94-16.89-11.67A18.49,18.49,0,0,1,79.44,96c2.41-1.81,4.12-3.29,5,1.65,1.66,9.8,10,15.19,20.16,13.55,3.66-.59,3.92.86,3.14,3.83C105.59,123.05,98.74,128.24,90.1,128.21Z"/></svg>