<svg id="Capa_1" data-name="Capa 1" xmlns="http://www.w3.org/2000/svg" viewBox="0 0 251.6 251.13"><defs><style>.cls-1{fill:#8ed1e4;}.cls-2{fill:#fff;}</style></defs><path class="cls-1" d="M0,125.23C2,53.85,56,0,125.82,0,197.69,0,251.73,56,251.6,125.46c-.15,71.12-55.14,126.15-126.4,125.67C54.28,250.65,1.66,195.83,0,125.23Z"/><path class="cls-2" d="M79.05,204.57c0-13.8,0-27.73,0-41.67a3.39,3.39,0,0,1,1.88-3.23c11.89-6.81,23.84-13.54,35.6-20.59,3.56-2.13,3.39-.34,3.39,2.22,0,12,0,24,0,36,0,2.9-.84,5.57-3.26,6.91-12.26,6.84-24,14.69-36.72,20.63C79.85,204.87,79.65,204.74,79.05,204.57Z"/><path class="cls-2" d="M172.91,206l-29.15-17a6.94,6.94,0,0,0-1.31-.71c-9.53-3.08-11.26-10-10.56-19.14.72-9.44.24-19,.2-28.46,0-2.53.27-3.39,3-1.79,11.71,6.9,23.53,13.61,35.35,20.32,2.06,1.16,2.51,2.8,2.5,5C172.88,177.87,172.91,191.52,172.91,206Z"/><path class="cls-2" d="M79.05,46C90.62,50.91,100,58.08,110.39,63.41c1.47.75,3,1.46,4.4,2.26,3,1.7,5.24,3.8,5.19,7.76-.15,12.15-.12,24.3-.07,36.45,0,2.89-.18,4.06-3.46,2.11-11.79-7-23.76-13.76-35.66-20.58C79.25,90.53,79,89.14,79,87.57,79.06,73.93,79.05,60.29,79.05,46Z"/><path class="cls-2" d="M172.93,46.57c0,13.78,0,27.57,0,41.35a4.17,4.17,0,0,1-2.47,4c-11.63,6.61-23.27,13.2-34.82,20-2.61,1.52-3.71,1.8-3.68-1.84.11-12.14.08-24.28,0-36.42,0-3.81,1.95-6.31,5.12-7.87,10.82-5.32,20.87-12,31.3-18A7,7,0,0,1,172.93,46.57Z"/><path class="cls-2" d="M33.83,125.63c12.65-7.09,24.29-14.57,36.63-20.84a5.54,5.54,0,0,1,5.63.08c11.09,6.27,22.12,12.64,33.14,19,2.2,1.27,1.76,2.44-.25,3.58-10.47,5.94-21,11.81-31.34,18-3.08,1.84-5.6,2-8.66.21-8.5-5.08-17.09-10-25.67-15C40.45,129.05,37.48,127.58,33.83,125.63Z"/><path class="cls-2" d="M218.29,125.49l-35.75,20.35c-2.07,1.18-3.89,1.9-6.38.45-11.11-6.47-22.36-12.71-33.55-19-1.81-1-2-2.2-.12-3.28,11.44-6.48,22.92-12.91,34.36-19.41a3.82,3.82,0,0,1,4.17,0C193.21,111.42,205.43,118.27,218.29,125.49Z"/></svg>