<svg id="Capa_1" data-name="Capa 1" xmlns="http://www.w3.org/2000/svg" viewBox="0 0 252.38 252.13"><defs><style>.cls-1{fill:#adaa8f;}.cls-2{fill:#fff;}</style></defs><path class="cls-1" d="M125.8,252.13C56.59,252.24,3.62,197.27.21,134.37-4,55.77,56.84,3.32,118,.19c78.37-4,130.52,56.26,134.13,117.57C256.61,193.68,196.29,252.88,125.8,252.13Z"/><path class="cls-2" d="M202.69,118.06c2.18,22.59-4.67,42.09-19.68,58.83s-34.46,25.83-56.55,26.39c-16.55.42-32.41-5.77-45.68-15.86-20.15-15.32-31.31-36.73-31.49-61.6-.14-20.2,8.36-38.54,23.2-53.34s33-23.12,53.4-23.63c16.6-.41,32.8,5.44,46.11,15.85C189.23,78.18,200,96,202.69,118.06Z"/><path class="cls-1" d="M175,125.79c-1,27.67-20.46,48.62-48.43,48.92C98.23,175,78,154.09,77.42,127.16c-.58-29,21.06-49.47,48-49.74C153.53,77.14,173.78,98.14,175,125.79Z"/></svg>