<svg id="Capa_1" data-name="Capa 1" xmlns="http://www.w3.org/2000/svg" viewBox="0 0 251.68 251.37"><defs><style>.cls-1{fill:#814091;}.cls-2{fill:#fff;}</style></defs><path class="cls-1" d="M0,125.17C1.4,53.89,55.33,8.18,106.86,1.35c40.65-5.4,76.5,5.33,106.39,33.94,26,24.9,39.08,55.92,38.4,91.5-1.34,71-54.63,116.46-108.2,123.36-41.83,5.4-78.26-7.17-108-37.5C11.23,188,.69,157,0,125.17Z"/><path class="cls-2" d="M125.76,49.57c16.71,1,32.57,4.47,46.8,14.29,11.76,8.11,21.26,17.7,26.7,31.07,7.56,18.55,5.5,36-5.19,52.79a58.35,58.35,0,0,1-13.28,15.18c-2.95,2.29-2.85,5.15-1.46,8,5.61,11.53-2.21,29.05-16.68,30.31-7.18.62-12.65-4-16.81-9.74-1-1.36-.64-3.84-3.32-3.76s-1.52,2.54-2.39,3.74c-3.71,5.11-7.72,9.35-14.9,9.15-7-.2-10.67-4.56-14-9.68-.73-1.13-.1-3.16-2.37-3.25s-2.16,1.66-2.83,2.91c-3.49,6.44-12.72,12.84-21.63,9.84-5.62-1.9-12.58-10.07-13.48-16.73-.65-4.74-.85-9.31,1.61-13.84,1.25-2.31.76-5-1.8-7.06a60.21,60.21,0,0,1-21-32.26,54.08,54.08,0,0,1,.53-29.65c4-13.87,12.19-24.41,23.09-33.14a78.8,78.8,0,0,1,41-17.07C118.14,50.25,121.85,49.12,125.76,49.57Z"/><path class="cls-1" d="M179.77,118.24c-.8,12-7.14,22.62-18.52,30.19A61.89,61.89,0,0,1,117,158.16C98.53,155.45,82.42,148,74.73,129.22c-5.35-13.06-3-25.21,6.12-35.82,13.79-16.08,32-20.31,52.2-18.65,14.8,1.22,27.52,6.83,37.51,18.18A37.39,37.39,0,0,1,179.77,118.24Z"/></svg>