<svg id="Capa_1" data-name="Capa 1" xmlns="http://www.w3.org/2000/svg" viewBox="0 0 251.73 251.15"><defs><style>.cls-1{fill:#a5a7c3;}.cls-2{fill:#fff;}</style></defs><path class="cls-1" d="M251.73,126.36c-2.26,32.77-12.87,62.51-36.94,86.85-24.68,25-54.84,38-89.36,37.94-34.72-.06-65-13.23-89.6-38.58C12.22,188.19-.14,158.78,0,125.3c.15-34.8,13.4-65,38.75-89.54C63.13,12.17,92.56-.19,126.05,0,161.44.2,192,14,216.61,39.91,239.47,64,249.94,93,251.73,126.36Z"/><path class="cls-2" d="M125.82,51.71c11.82,0,23.68.48,35.46-.2,6.14-.36,8.59,2.86,11,7.16,9.36,17,19.22,33.81,29.16,50.52,2.86,4.81,4.88,10.12,8.6,14.43,1.05,1.23.58,2.39-.16,3.65Q196,151,182.31,174.7c-4.3,7.43-8.57,14.87-13.19,22.11-1.3,2-2.42,2.82-4.59,2.81-25.82,0-51.63-.07-77.45,0-4.67,0-5.67-3.81-7.25-6.48C71.2,178.58,63,163.74,54.54,149q-6.24-10.9-12.73-21.68a3.22,3.22,0,0,1,0-4c8-11.7,14.2-24.42,21.46-36.54,6.43-10.73,12.9-21.44,19-32.38,1.38-2.51,2.86-2.71,5.08-2.7,12.83,0,25.65,0,38.48,0Z"/><path class="cls-1" d="M166,126.1c1.36,20.73-16.88,38.64-37.88,39.78C103,167.25,86.62,146,85.69,128.32,84.4,104,104.49,85,126.18,85.21,145.43,85.4,167.82,101.81,166,126.1Z"/></svg>