<svg id="Capa_1" data-name="Capa 1" xmlns="http://www.w3.org/2000/svg" viewBox="0 0 250.15 250.19"><defs><style>.cls-1{fill:#6976b8;}.cls-2{fill:#fff;}.cls-3{fill:#6b77b8;}</style></defs><path class="cls-1" d="M250.15,125A125.08,125.08,0,0,1,0,125.28C-.2,56.15,56.26-.18,125.17,0,194.74.18,250.35,56.85,250.15,125Z"/><path class="cls-2" d="M124.91,206.18a57.29,57.29,0,0,1-54-41.16c-5.47-18.78-.77-36.28,6.71-53.14,10.75-24.25,26.54-45.21,44.83-64.32,1.48-1.56,2.44-3.32,5-.67,18.07,18.67,33.5,39.23,44.58,62.78,5.24,11.12,9,22.82,10,35.27,2,24.64-13.68,48.95-37.11,57.5A56.49,56.49,0,0,1,124.91,206.18Z"/><path class="cls-3" d="M155.38,159.58c1.45,9.95-9.91,25-24.4,28.13-21.37,4.63-41.62-11.7-40.86-33.48.23-6.63,2.76-12.57,6.14-18.19.63-1,1.32-2.16,2.65-1.9,1.86.36,1.29,2.06,1.33,3.28.56,17.47,13.73,30.52,30.15,31.23a30.48,30.48,0,0,0,21.75-7.16c.76-.64,1.49-1.31,2.28-1.89C154.64,159.45,155.05,159.58,155.38,159.58Z"/></svg>