<svg id="Capa_1" data-name="Capa 1" xmlns="http://www.w3.org/2000/svg" viewBox="0 0 251.27 251.18"><defs><style>.cls-1{fill:#4a4a4a;}.cls-2{fill:#fff;}</style></defs><path class="cls-1" d="M251.24,122.48c1.37,67.21-45.61,119.82-106.59,127.44C61.14,260.37,9,204.18,1.34,145.05-9.35,62.75,45.79,9.49,106.69,1.31,187.39-9.53,249.1,48.32,251.24,122.48Z"/><path class="cls-2" d="M205.43,126c-1.55,46.22-35.93,77.85-76.77,79.27-48.3,1.67-85.19-36.78-82.68-84.21,2.12-40.12,33.82-76.74,83.27-75C170.89,47.6,204.48,80.41,205.43,126Z"/><path class="cls-1" d="M123.92,59.66c32.68,1.07,58.27,19.18,65.59,50.5,8.29,35.45-11.16,69.91-48.58,79.58-11.26,2.91-22.76,2-34-1.05-1.12-.3-2.4-.46-2.42-2s1.28-1.48,2.37-1.9c21.1-8.24,34-23.27,40.31-45.25,8.55-29.85-13-64.06-40.13-73.11-1.09-.36-2.46-.26-2.46-1.88,0-1.88,1.65-1.93,2.86-2.15C113.5,61.32,119.57,60.37,123.92,59.66Z"/></svg>