<svg id="Capa_1" data-name="Capa 1" xmlns="http://www.w3.org/2000/svg" viewBox="0 0 251.21 251.68"><defs><style>.cls-1{fill:#f1a4c8;}.cls-2{fill:#fff;}</style></defs><path class="cls-1" d="M120.29,251.66c-27.16.74-61.45-12.62-88.66-42.72A119.39,119.39,0,0,1,.27,134.43c-2.48-41.38,12-76.28,43.08-103.84C64.2,12.09,89.05,2,116.73.29c41-2.57,75.68,11.85,103.15,42.39a119.45,119.45,0,0,1,31,74.06c2.17,34.5-7.93,65.38-30.74,91.46C193.43,238.78,160.79,249.13,120.29,251.66Z"/><path class="cls-2" d="M74.28,177c1.72-6,3.09-11.52,4.89-16.86,1.92-5.7.15-10.59-5-13.53-10.94-6.32-21.79-12.82-32.68-19.24-2.46-1.45-2.07-2.47.24-3.79,11.81-6.74,23.56-13.59,35.33-20.4,3.57-2.06,2.89-5.66,2.3-8.52-1.4-6.81-3.49-13.49-5.34-20.36,7.56,1.55,14.74,4.49,22.42,5.22,3.68.36,5.7-.89,7.67-4.53C110,64.17,116.91,53.93,123,43.24c2-3.48,2.9-3.57,4.85-.3,4.48,7.51,9.36,14.79,13.49,22.48,2.23,4.16,4.95,8,7,12.35,1.86,3.91,7.58,2.33,11,1.34,5.63-1.63,11.4-2.66,17.2-4.77C176,81,173.5,86.76,172,92.8c-1.58,6.58-.62,8.52,5.22,11.87,10.85,6.22,21.59,12.63,32.36,19,3,1.78,1.61,2.62-.62,4-11.45,6.87-22.64,14.2-34.22,20.84-5.39,3.1-3.82,7.87-2.59,11.15,2.12,5.71,2.88,11.62,4.82,17.27-8-1.46-15.35-4.57-23.22-5.41a4.88,4.88,0,0,0-5.27,2.72c-6.64,11.35-13.39,22.64-20,34-.77,1.32-1.22,2.94-3,2.94s-1.59-1.78-2.23-2.88c-5.38-9.25-10.86-18.44-16.33-27.64-.77-1.28-2.13-2.41-2.37-3.76-1.24-6.83-6.35-5.92-10.74-5.07C87.49,173,81.28,175.08,74.28,177Z"/><path class="cls-1" d="M90.58,125.89c-.34-2.59,1.32-3.73,3.41-4.78,3.53-1.76,6.88-3.87,10.42-5.61,8.77-4.31,11.83-13,16-20.79,1.11-2,1.93-3.83,4.53-3.86s4,1.22,5.13,3.73c5.42,12.5,14.12,21.76,27.22,26.39a4.53,4.53,0,0,1,3.33,4.44,4.28,4.28,0,0,1-2.8,4.63c-4.76,2.28-9.24,5.13-13.87,7.68-6.27,3.45-8,10.21-11.61,15.64-.81,1.25-1.28,2.72-2.11,4-1.3,2-2.78,3.77-5.57,3.49-2.58-.26-3.31-2.1-4.32-4.16a114.54,114.54,0,0,0-7.93-14.31c-3.16-4.67-8.86-6.19-13.35-9.23a50.08,50.08,0,0,0-6.57-3.46C90.92,128.87,90.52,127.56,90.58,125.89Z"/></svg>