<svg id="Capa_1" data-name="Capa 1" xmlns="http://www.w3.org/2000/svg" viewBox="0 0 250.72 251.15"><defs><style>.cls-1{fill:#c81617;}.cls-2{fill:#fff;}.cls-3{fill:#fffefe;}</style></defs><path class="cls-1" d="M125.05,251.15C54.36,248.9,0,195.32,0,125.28,0,54.86,55.13-.19,125.68,0c70.89.19,125.41,55.81,125,125.86C250.35,196.35,195.41,249.28,125.05,251.15Z"/><path class="cls-2" d="M196.54,126.56c0,18.16-.11,36.32.1,54.47,0,3.74-1.34,4.51-4.63,4.5-35-.07-70,0-105-.06-6.62,0-10.45-3.93-10.45-10.66q0-51,0-101.95c0-5.33,2.21-7.48,7.58-7.75,12.49-.63,13.89.67,13.89,13,0,10,.13,20-.12,30-.11,4.17,2,4.55,5.26,4.5s6-.11,5.93-4.6c-.15-11.49-.07-23-.14-34.48,0-6.19,2-8.36,8.32-8.48,13-.25,14,.74,14.06,13.55,0,9.83.12,19.66-.1,29.49-.09,4,1.83,4.85,5.21,4.61,3-.22,5.86,0,5.74-4.67-.29-11.82.06-23.66-.17-35.48-.09-4.85,2-7.22,6.58-7.37,13.2-.43,15.82-.81,15.35,13.43-.32,9.48.18,19-.16,28.48-.16,4.71,2.06,5.41,5.95,5.66,4.5.28,5.35-1.94,5.32-5.7-.08-10.66,0-21.32,0-32,0-3.62-.51-8.18,3.87-9.34C184.3,64.38,190,64,195,67.05c1.92,1.17,1.51,3.54,1.51,5.53v54Z"/><path class="cls-3" d="M64.56,144.42c0,12.16,0,24.32,0,36.49,0,1.63,1.08,4.32-1.66,4.39s-6.89,2.12-8.51-1.8c-4.83-11.63-9.3-23.41-13.75-35.19-1.28-3.39-.72-6.89.61-10.24,4.29-10.78,8.64-21.53,12.82-32.35,1.83-4.76,5.67-2.2,8.53-2.38,3.2-.19,1.95,2.87,2,4.58.09,12.17,0,24.33,0,36.5Z"/></svg>