<svg id="Capa_1" data-name="Capa 1" xmlns="http://www.w3.org/2000/svg" viewBox="0 0 250.48 250.99"><defs><style>.cls-1{fill:#ee7222;}.cls-2{fill:#fff;}</style></defs><path class="cls-1" d="M125.69,0C197,2.61,250.79,56.28,250.48,126c-.32,72.08-56.26,125.55-125.83,125C52.44,250.44-.47,194.39,0,125.24.5,53.11,56.45,2,125.69,0Z"/><path class="cls-2" d="M67.29,122.72c.62,3.26,1.22,6.55,3.08,9.37.8,1.22,1.84,2.79,3.46,2.48,2.1-.4,1.29-2.44,1.26-3.76-.24-9.68.47-19.25,3.5-28.5a53.11,53.11,0,0,1,27.33-32c13.13-6.74,19.94-18,21.08-32.76.13-1.57-.75-3.66,1.05-4.55,2-1,3.3,1,4.65,2.1,8.16,6.69,12.5,15.58,14.41,25.76.75,4,0,6.78-5,8-11.5,2.75-18.37,13.85-16.48,25.52,2.63,16.21,18.62,25.12,33.77,18.13a19.79,19.79,0,0,0,11.92-16.58c1.1-1.8.69-3.83.94-5.77.39-3,1.93-3.72,4.3-1.77,3.31,2.72,5.86,6.21,8.69,9.41,3.82,6,7.85,11.8,9.35,18.89,3,14,.38,26.92-7,39.12-7.17,11.82-17.39,19.75-30,24.88a45.47,45.47,0,0,1-17.1,3.12c3.76-4,7.92-6.52,9.88-11.13,4.55-10.71,4.36-21.09-2.6-30.51-6.24-8.44-15.33-11.38-25.52-10-17.41,2.42-26.1,14.94-22.52,34,2.77,14.74,12.93,23.13,27,26.76,19.12,4.94,37,.1,54.32-7.54-13,19.56-48.11,33.72-77.68,22.28-32.26-12.48-53-43-48-79.8.91-5.37,3.21-10.28,5-15.35a17.11,17.11,0,0,1,1.91-4,2.1,2.1,0,0,1,2.06-1.12c1.3.19,1.26,1.23,1.37,2.24C66.22,114,65.58,118.5,67.29,122.72Z"/></svg>