<svg id="Capa_1" data-name="Capa 1" xmlns="http://www.w3.org/2000/svg" viewBox="0 0 250.21 250.18"><defs><style>.cls-1{fill:#978dc3;}.cls-2{fill:#fff;}</style></defs><path class="cls-1" d="M250.21,124.82a125.23,125.23,0,0,1-125.4,125.36C56.34,250.13-.25,194.14,0,124.67.25,55.84,56.54-.18,125.2,0A125.28,125.28,0,0,1,250.21,124.82Z"/><path class="cls-2" d="M186.45,147.16c-5.89,11-14,17.56-25,20.58a54.15,54.15,0,0,1-16.27,1.69c-2.25-.07-5.28-.61-5.32,2.8,0,2.85,1.74,4.6,5,3.64a1.67,1.67,0,0,1,2.16.74c.47,1-.61,1.39-1.11,1.94-8,8.77-18,13.47-29.49,16.23-15.82,3.8-30.34.89-44-7-16.69-9.7-26.07-24.54-28.92-43.61-3-20.3,4-37.28,17.74-51.56,10.92-11.33,24.9-16.87,40.62-17.14,18.48-.3,37-.17,55.47,0,19.4.15,36-6.24,49.85-21.66A48.2,48.2,0,0,1,205,72.49c-6.3,20.36-19.32,34.35-39.59,41.53-11.4,4-23.18,3.39-34.93,3.42-1.49,0-3,0-4.49,0-2,0-2.39,1.37-2.39,3.05s.53,3.06,2.49,3c16.77-.87,33.65,1.73,50.33-1.16,8.28-1.44,14.9-5.45,23.42-12.38-.13,6.22-6.54,17.1-13.6,23-10,8.3-21.51,12.26-34.4,12.46-5.5.08-11,0-16.5,0-2.33,0-3.82.52-3.78,3.31s2,3.82,3.89,3.42c9.82-2,19.55.52,29.33.24C172.1,152.15,179.24,151.47,186.45,147.16Z"/></svg>