<svg id="Capa_1" data-name="Capa 1" xmlns="http://www.w3.org/2000/svg" viewBox="0 0 249.55 249.77"><defs><style>.cls-1{fill:#59b031;}.cls-2{fill:#fff;}</style></defs><path class="cls-1" d="M249.29,117C254,192.8,193.19,250,124.8,249.77c-69-.27-124.81-55-124.8-125C0,55.25,55.34,0,124.9,0,196.08,0,246.56,57,249.29,117Z"/><path class="cls-2" d="M143.78,124.59c9.39-12.81,18.25-24.83,27-36.93,1.76-2.42,5.36-5.44,2.43-8.11-3.1-2.83-6,.08-8.62,2.88-9.19,9.85-18.69,19.42-28.11,29.07-1,1-2,2.82-3.58,2.27s-1.45-2.7-1.76-4.28c-1.37-7-2.78-14-4.17-21-.38-1.92-1-3.71-3.41-3.51s-2.51,2.31-2.56,4.15c-.3,11.47-.66,22.95-.78,34.43a10.15,10.15,0,0,1-2.86,7.61c-6.6,6.81-13,13.8-19.54,20.68-.86.91-1.68,2.47-3.23,1.73-1.15-.56-.72-2.06-.91-3.17q-3.89-21.83-7.76-43.65c-.39-2.22-1.28-4-3.77-3.77-2.77.19-2.17,2.54-2.17,4.24,0,18.82,0,37.64.25,56.46,0,4-.82,7.09-3.77,9.77-2.08,1.9-3.87,4.12-5.84,6.16-5.77,6-5.78,6-10.38-1.15C38.07,144.07,48.35,98.15,83,76c17.13-11,36-16.68,55.78-20.45,17-3.25,34.13-2.7,51.27-2.71,2.66,0,4.21.7,4.87,3.69A245.5,245.5,0,0,1,201,112.41c-.25,21.47-3.09,42.66-14.15,61.57-15.66,26.75-39.35,39.89-70.44,38.56-9.34-.39-18.28-3.47-26.75-7.6-2.47-1.21-3.36-2.46-1.14-4.81a17.94,17.94,0,0,0,3.84-5.19c3.91-9.54,12.25-10.75,21-12,15.61-2.3,31.14-5.1,46.71-7.66,2.13-.35,4-1,4-3.58-.07-2.95-2.33-2.77-4.35-2.74-14.47.18-29-.46-43.42.63-1.26.09-2.95.65-3.75-.51-1.16-1.68.8-2.7,1.57-3.78,5.49-7.73,11.17-15.33,16.67-23.05a8.36,8.36,0,0,1,5.78-3.42c10.93-2,21.82-4.24,32.73-6.4.64-.13,1.24-.53,1.88-.62,2.27-.31,4-1.48,3.75-3.8s-2.49-2.25-4.34-2.31l-22.92-.83C146.62,124.8,145.66,124.71,143.78,124.59Z"/></svg>