<svg id="Capa_1" data-name="Capa 1" xmlns="http://www.w3.org/2000/svg" viewBox="0 0 250.19 250.18"><defs><style>.cls-1{fill:#e5ba61;}.cls-2{fill:#fff;}</style></defs><path class="cls-1" d="M124.79,0A125.09,125.09,0,1,1,0,125.3,125,125,0,0,1,124.79,0Z"/><path class="cls-2" d="M145.5,172.15q-32.2,0-64.43,0c-5.72,0-5.93-.26-4-5.56,7.55-20.4,15.21-40.77,22.77-61.16,4.85-13.08,9.68-26.16,14.37-39.29,1.48-4.16,3.38-6.39,8.52-6.24,15.13.44,30.3.36,45.44,0,4.49-.1,6.61,1.51,8,5.42,5,13.89,10.19,27.73,15.33,41.58q11.09,29.89,22.24,59.77c1.95,5.19,1.88,5.46-3.88,5.47Q177.71,172.17,145.5,172.15Z"/><path class="cls-2" d="M77.47,84.26c2.49,0,5,0,7.48,0,5.58,0,5.86.12,3.9,5.51-5.09,14-10.47,28-15.69,42Q67,148.27,61,164.85c-2.91,8-2.87,8-11.17,8l-14,0c-3.64,0-5.17-1.24-3.71-5.14,6.64-17.71,13.14-35.47,19.71-53.2,3-8.09,6.39-16,8.94-24.27,1.48-4.79,4.13-6.38,8.73-6.08C72.14,84.41,74.81,84.27,77.47,84.26Z"/></svg>