<svg id="Capa_1" data-name="Capa 1" xmlns="http://www.w3.org/2000/svg" viewBox="0 0 251.24 250.85"><defs><style>.cls-1{fill:#ea5498;}.cls-2{fill:#fff;}</style></defs><path class="cls-1" d="M0,125.3C2,53.33,57-.36,126.22,0c72.11.38,125.19,57.29,125,125.28-.18,72-56.66,126-126.1,125.57C54.07,250.42,1.47,194.31,0,125.3Z"/><path class="cls-2" d="M137.32,189.92c8.76-.19,15.71-.44,22.45-2.63,1.11-.37,2.93-1.13,3.52.48s-1.28,2.06-2.37,2.66c-15.12,8.23-30.8,9-47.47,5.12-11.22-2.64-21.69-6.5-30.81-13.22A66.86,66.86,0,0,1,58.85,151c-2.75-7.52-4.63-15.39-4.58-23.24A90.06,90.06,0,0,1,59,99.49C63,87.83,69.91,78.44,79,70.36c16.73-14.94,36.27-19.93,58.15-16.11C156.18,57.58,172.07,66.9,184,82c11.3,14.31,15.67,30.57,11.33,49a54.75,54.75,0,0,1-17.86,29.66c-8.19,7.12-18,10.49-28.65,12.52s-20.31-.34-29.31-4.69c-25-12.07-35-45.32-10.59-65.53,12.41-10.27,26.2-11.72,40.19.3,8.38,7.2,9.64,22.9,2.44,31.19-6.55,7.56-21.43,6.16-26.36-2.5-.81-1.43-1-2.94.42-4s2.42-.05,3.16,1.2c2.56,4.32,6.67,5,10.86,3.74s6-5,6.16-9.35c.2-5.34.57-11-5.1-14-6.74-3.58-13.62-3.23-20.54,0-12.26,5.78-12.54,22.23-6.2,33.19,6.58,11.39,22.36,16.34,35.45,11.71,18.25-6.46,23.8-21.45,22.13-39.07-1.34-14.06-8.17-24.83-20.55-31.51a44.72,44.72,0,0,0-20.49-5.35c-10-.2-19.72,1-29,5.41-11.28,5.33-17.64,14.58-21.89,25.77-8,21-2.16,49.73,13,64.5,9.21,9,20.9,13.21,33.52,14.91C130.45,189.62,134.75,190.17,137.32,189.92Z"/></svg>