<svg id="Capa_1" data-name="Capa 1" xmlns="http://www.w3.org/2000/svg" viewBox="0 0 249.82 249.66"><defs><style>.cls-1{fill:#c49109;}.cls-2{fill:#fff;}</style></defs><path class="cls-1" d="M249.82,124.84C249.1,194,194.93,249.5,124.9,249.66A124.12,124.12,0,0,1,0,124.84C0,55.14,55.4-.06,124.85,0,195.37.06,249.18,56.19,249.82,124.84Z"/><path class="cls-2" d="M136.66,65.58c10.82,0,21.65,0,32.48,0,2.82,0,3.88.36,2.59,3.6-7.27,18.19-14.34,36.45-21.41,54.72a11.71,11.71,0,0,1-4.83,5.53q-33.18,22.17-66.34,44.35a6.93,6.93,0,0,1-6.59.76c-6.47-2.13-12.91-4.36-19.39-6.45-2.77-.89-4.39-2.25-4.79-5.49-1.33-10.86-3-21.69-4.6-32.52-.32-2.19.52-3.73,2-5.31q26.1-27.87,52.06-55.87a9.3,9.3,0,0,1,7.82-3.22c10.32.3,20.66.11,31,.11Z"/><path class="cls-2" d="M93.24,181.23c8.15-5.4,15.47-10.21,22.74-15.08,11.18-7.5,22.38-15,33.47-22.59,2.41-1.65,3.81-1.65,5.55.92,4.46,6.61,9.2,13,13.83,19.51,1.42,2,1.57,3.77-.23,5.81-6.93,7.85-13.84,15.73-20.49,23.81-2.5,3-5,3.83-8.67,2.6-11-3.73-22.07-7.34-33.13-11C102.37,184,98.4,182.81,93.24,181.23Z"/><path class="cls-2" d="M187.51,69c3.89,8.37,5.77,17.31,8.62,25.91,3.14,9.45,5.8,19.06,8.92,28.51A5,5,0,0,1,204,128.9c-7,8.2-14.13,16.36-21.11,24.61-1.69,2-2.77,2.18-4.37-.14-4.52-6.57-9.2-13-13.87-19.5a6.3,6.3,0,0,1-.79-6.56c7-17.41,13.94-34.85,21.05-52.23C185.66,73.14,185.23,70.66,187.51,69Z"/></svg>